<svg width="380" height="401" viewBox="0 0 380 401" fill="none" xmlns="http://www.w3.org/2000/svg">
<path d="M336.808 239.202C342.499 288.019 282.006 295.212 282.006 295.212L238.036 209.981C252.95 197.87 331.131 190.384 336.808 239.202ZM224.666 179.288L230.157 187.917L209.294 235.098C209.294 235.098 269.409 285.51 281.749 342.585C374.344 252.221 393.104 196.282 393.104 196.282L402.113 188.804C402.113 188.804 401.655 185.672 401.091 180.66C375.044 182.298 327.456 180.474 246.265 163.437C240.238 162.171 234.418 160.842 228.763 159.469C226.303 169.357 224.666 179.288 224.666 179.288Z" stroke="#E6E6E6" stroke-width="6.30219" stroke-miterlimit="10"/>
<path d="M361.99 277.588C361.99 277.588 320.336 329.902 286.382 363.198C292.552 404.415 277.124 406.317 277.124 406.317V407.068C321.265 403.214 346.418 392.383 359.409 384.389C359.244 382.216 359.08 379.921 358.915 377.468C348.119 369.539 354.29 337.831 354.29 336.244C354.29 334.656 361.99 277.588 361.99 277.588Z" stroke="#E6E6E6" stroke-width="6.30219" stroke-miterlimit="10"/>
<path d="M59.5528 306.122C31.7765 301.368 44.9819 255.846 44.9819 255.846L51.6525 248.096L68.8116 263.317V271.246L73.4446 290.271C73.4446 290.271 87.3292 310.877 59.5528 306.122ZM87.3292 371.127L102.758 356.856L98.1323 318.806C98.1323 318.806 90.4107 287.097 62.6415 204.654C42.5796 210.996 30.9114 282.342 30.9114 282.342L20.3085 290.228C28.3733 310.641 47.1911 345.795 87.2291 372.228L87.3292 371.127Z" stroke="#E6E6E6" stroke-width="6.30219" stroke-miterlimit="10"/>
<path d="M414.596 179.309V200.022L405.209 207.829C405.209 207.829 403.672 241.118 378.977 260.143C374.344 291.851 365.707 329.902 365.707 329.902L366.622 355.269L371.255 375.123L428.36 176.12C428.36 176.12 424.463 177.872 414.596 179.309Z" stroke="#E6E6E6" stroke-width="6.30219" stroke-miterlimit="10"/>
<path d="M230.837 375.881C230.837 375.881 199.972 375.881 170.651 371.127C141.337 366.365 192.257 321.851 192.257 321.851C207.686 305.872 216.945 320.393 216.945 320.393L230.837 348.87C244.721 377.34 230.837 375.881 230.837 375.881ZM270.953 386.977C272.49 336.244 249.354 318.806 249.354 318.806C249.354 318.806 232.381 285.517 201.516 247.466C166.025 295.026 118.187 330.216 118.187 330.216V366.751L107.384 375.881L105.932 383.067C127.596 393.998 154.207 402.299 186.852 405.559C216.545 408.526 241.747 409.055 263.082 408.019C264.54 402.392 267.164 393.791 270.953 386.977Z" stroke="#E6E6E6" stroke-width="6.30219" stroke-miterlimit="10"/>
<path d="M118.187 163.566C118.187 163.566 147.507 177.708 170.651 177.708C193.801 177.708 199.971 204.655 192.257 214.55C164.481 216.516 147.507 234.783 147.507 234.783C147.507 234.783 141.337 272.826 118.187 262.495C95.0433 252.157 102.758 196.733 102.758 196.733C102.758 196.733 91.9547 177.708 89.4237 163.566C86.8927 149.416 118.187 163.566 118.187 163.566ZM74.9814 188.804L113.561 314.051C204.604 234.783 209.295 190.198 209.295 190.198V178.022C209.295 178.022 210.446 167.083 213.756 155.594C147.214 137.319 108.427 112.024 87.3789 93.6565C86.2135 107.999 86.4637 121.704 86.4637 121.704C86.4637 121.704 78.0701 130.141 74.6096 131.142C71.1564 132.136 74.9814 188.804 74.9814 188.804Z" stroke="#E6E6E6" stroke-width="6.30219" stroke-miterlimit="10"/>
<path d="M47.2053 131.728H50.294V152.341C50.294 165.024 47.2053 185.629 47.2053 185.629C47.2053 185.629 42.5795 195.146 33.1348 200.98C22.1459 197.298 47.2053 131.728 47.2053 131.728ZM17.8847 271.246C13.2589 228.434 61.0971 184.049 61.0971 184.049V130.141C61.0971 130.141 61.0971 122.219 73.5589 112.682C70.7133 105.239 72.2148 92.5697 74.6027 81.2161C68.2753 74.2523 65.7229 69.8982 65.7229 69.8982L47.2053 76.2399L14.9462 273.599C15.8542 272.869 16.8194 272.097 17.8847 271.246Z" stroke="#E6E6E6" stroke-width="6.30219" stroke-miterlimit="10"/>
<path d="M257.769 30.3249C270.682 32.2052 282.579 34.7148 293.539 37.6461L298.701 18.8998L316.818 24.4121C288.198 12.7153 254.817 4.40746 217.36 3.99993L206.349 23.3826C206.027 23.9331 205.67 24.4622 205.291 24.977C220.606 25.7491 238.015 27.4293 257.769 30.3249Z" stroke="#E6E6E6" stroke-width="6.30219" stroke-miterlimit="10"/>
<path d="M316.911 24.448C316.839 24.4981 309.025 31.6548 305.622 41.1782C349.749 55.22 377.168 76.6547 393.348 94.0712L401.47 76.2328C382.015 59.7172 353.338 39.3478 316.911 24.448Z" stroke="#E6E6E6" stroke-width="6.30219" stroke-miterlimit="10"/>
<path d="M430.719 104.867C430.719 104.867 421.203 93.2347 403.393 77.8701L419.43 93.6136L410.278 106.14C409.12 107.72 407.747 109.043 406.267 110.122C411.629 117.951 413.753 123.034 413.753 123.034C413.753 123.034 350.479 127.796 256.361 126.209C162.229 124.622 101.786 42.0933 101.786 42.0933C101.786 42.0933 120.031 24.4838 184.621 24.4266C184.636 24.4123 184.636 24.3765 184.636 24.3336L189.211 4.80798C66.209 10.6635 61.9263 31.09 61.9263 31.09L48.0417 61.2043C48.0417 61.2043 186.923 214.993 430.719 170.601C463.135 165.846 430.719 104.867 430.719 104.867Z" stroke="#E6E6E6" stroke-width="6.30219" stroke-miterlimit="10"/>
<path d="M87.329 368.989L97.8461 359.258C61.8906 334.12 39.8482 301.446 28.8592 281.728L11.9289 294.311L11.6358 295.383L8.63291 329.351L7.00279 312.049L4.83645 319.842C4.83645 319.842 2.94895 391.439 81.9024 430.326L87.329 368.989Z" stroke="#E6E6E6" stroke-width="6.30219" stroke-miterlimit="10"/>
<path d="M368.746 362.183L371.255 372.986V410.207L361.989 418.136L358.915 375.331C357.621 374.373 356.556 373.071 355.712 371.527L326.098 392.769C326.098 392.769 317.276 398.724 283.072 399.682C280.212 403.793 277.123 404.187 277.123 404.187V449.844L261.694 453.012V411.794C261.694 411.794 262.752 406.403 264.847 399.718C244.678 399.289 218.267 397.366 183.835 392.769C156.43 389.115 132.972 380.307 113.082 368.925L107.391 373.743L102.758 396.572C102.758 396.572 96.5877 432.406 96.5877 433.986C96.5877 434.444 96.1802 435.309 95.5295 436.353C115.384 444.26 139.578 450.223 169.078 453.012C336.422 468.869 385.969 403.865 385.969 403.865L381.358 353.131L368.746 362.183Z" stroke="#E6E6E6" stroke-width="6.30219" stroke-miterlimit="10"/>
<path d="M4 278.067L8.62582 327.214L11.7145 292.338L30.9112 278.067C30.9112 278.067 42.5794 206.721 62.6342 200.379C90.4105 282.822 98.125 314.53 98.125 314.53L102.758 352.581L87.329 366.851L81.1517 436.61C81.1517 436.61 82.6961 446.119 87.329 442.952C91.9548 439.778 96.5878 433.436 96.5878 431.849C96.5878 430.269 102.758 394.435 102.758 394.435L107.384 371.606L118.187 362.476V325.948C118.187 325.948 166.025 290.751 201.516 243.191C232.381 281.234 249.354 314.53 249.354 314.53C249.354 314.53 272.49 331.968 270.953 382.702C264.783 393.805 261.694 409.656 261.694 409.656V450.874L277.123 447.706V402.049C277.123 402.049 292.552 400.14 286.382 358.922C320.336 325.626 361.989 273.313 361.989 273.313C361.989 273.313 354.289 330.388 354.289 331.968C354.289 333.555 348.119 365.264 358.915 373.193L361.989 415.998L371.255 408.069V370.848L366.622 350.993L365.707 325.626C365.707 325.626 374.344 287.576 378.977 255.867C403.672 236.849 405.209 203.554 405.209 203.554L414.597 195.746V135.696C414.597 135.696 399.039 122.698 399.039 143.304C399.039 163.916 402.113 184.528 402.113 184.528L393.105 192.014C393.105 192.014 374.344 247.946 281.749 338.31C269.409 281.234 209.295 230.822 209.295 230.822L230.157 183.642L224.666 175.012C224.666 175.012 231.351 134.431 238.036 135.696C244.728 136.962 233.182 118.409 222.75 131.65C212.319 144.891 209.295 173.747 209.295 173.747V185.923C209.295 185.923 204.597 230.501 113.561 309.776L74.9816 184.528C74.9816 184.528 71.1565 127.86 74.6098 126.859C78.0702 125.866 86.4639 117.436 86.4639 117.436C86.4639 117.436 85.7847 79.8934 91.9548 64.0355C98.125 48.1848 81.1517 52.9393 81.1517 52.9393C81.1517 52.9393 67.5031 92.534 73.5588 108.406C61.097 117.937 61.097 125.866 61.097 125.866V179.774C61.097 179.774 13.2588 224.159 17.8846 266.971L4 278.067Z" stroke="#E6E6E6" stroke-width="6.30219" stroke-miterlimit="10"/>
</svg>
